<?xml version="1.0" encoding="UTF-8"?>
<svg id="Livello_2" data-name="Livello 2" xmlns="http://www.w3.org/2000/svg" viewBox="0 0 2099.12 939.63">
  <defs>
    <style>
      .cls-1 {
        fill: #01dc94;
      }
    </style>
  </defs>
  <g id="Livello_1-2" data-name="Livello 1">
    <g>
      <g>
        <path class="cls-1" d="M1008.92,120.59C942.59,46.1,870.78,0,766.18,0c-131.21,0-253.31,97.73-265.34,259.25h159.64c11.3-59,61.23-104,122.46-106.21h2.92c55.4,0,102.42,35.03,141.05,78.55l82.01-111Z"/>
        <path class="cls-1" d="M1436.82,259.25h161.83C1587.35,101.42,1467.44,4.43,1334.4,2.95h-5.83c-143.24,0-217.59,103.63-267.16,158.58l-97.32,140.51c-44.1,61.59-104.24,127.23-179.69,127.23h-2.91c-60.87-1.84-110.44-46.1-122.47-104.37h-158.55c12.76,160.79,134.49,257.78,265.34,257.78s202.66-64.9,279.92-165.95l91.49-124.28c4.74-6.27,9.48-12.17,14.58-19.18,43.01-55.32,94.76-116.53,166.57-116.53,64.87,0,105.69,43.15,118.45,102.89v-.37Z"/>
        <path class="cls-1" d="M1436.83,324.52c-13.13,59.01-55.04,101.42-118.1,101.42-55.4,0-99.86-37.98-137.41-81.13l-84.92,115.06c48.11,54.21,116.63,119.12,232.17,119.12h5.84c132.67-1.48,252.22-98.1,264.24-254.46h-161.82Z"/>
      </g>
      <g>
        <path class="cls-1" d="M21.85,879.69c13.16,13.72,33.61,25.21,59.38,25.21,21.85,0,32.49-10.36,32.49-21.01,0-14-16.24-18.76-37.81-23.81-30.53-7-69.74-15.4-69.74-57.14,0-31.09,26.89-56.3,70.86-56.3,29.69,0,54.33,8.96,72.82,26.05l-22.13,29.13c-15.12-14-35.29-20.45-53.49-20.45s-27.45,7.84-27.45,19.05c0,12.6,15.68,16.52,37.25,21.57,30.81,7,70.02,16.24,70.02,57.7,0,34.17-24.37,59.94-74.78,59.94-35.85,0-61.62-12.04-79.26-29.69l21.85-30.25Z"/>
        <path class="cls-1" d="M343.37,936.27v-134.44l-52.65,134.44h-17.36l-52.65-134.44v134.44h-39.77v-186.81h55.74l45.37,116.51,45.37-116.51h56.02v186.81h-40.05Z"/>
        <path class="cls-1" d="M551.18,936.27l-11.76-32.21h-83.46l-11.76,32.21h-43.69l72.26-186.81h49.85l71.98,186.81h-43.41ZM497.69,783.91l-31.09,85.7h61.9l-30.81-85.7Z"/>
        <path class="cls-1" d="M717.54,936.27l-36.69-66.94h-29.13v66.94h-39.77v-186.81h87.38c38.93,0,62.74,25.49,62.74,60.22s-20.73,50.69-40.89,55.46l42.01,71.14h-45.65ZM693.45,783.63h-41.73v51.53h41.73c15.96,0,28.01-10.08,28.01-25.77s-12.04-25.77-28.01-25.77Z"/>
        <path class="cls-1" d="M832.37,936.27v-151.8h-54.61v-35.01h149v35.01h-54.33v151.8h-40.05Z"/>
        <path class="cls-1" d="M1032.9,879.69c13.16,13.72,33.61,25.21,59.38,25.21,21.85,0,32.49-10.36,32.49-21.01,0-14-16.24-18.76-37.81-23.81-30.53-7-69.74-15.4-69.74-57.14,0-31.09,26.89-56.3,70.86-56.3,29.69,0,54.33,8.96,72.82,26.05l-22.13,29.13c-15.12-14-35.29-20.45-53.49-20.45s-27.45,7.84-27.45,19.05c0,12.6,15.68,16.52,37.25,21.57,30.81,7,70.02,16.24,70.02,57.7,0,34.17-24.37,59.94-74.78,59.94-35.85,0-61.62-12.04-79.26-29.69l21.85-30.25Z"/>
        <path class="cls-1" d="M1319.97,936.27v-78.42h-88.22v78.42h-39.77v-186.81h39.77v73.38h88.22v-73.38h40.05v186.81h-40.05Z"/>
        <path class="cls-1" d="M1527.5,936.27l-11.76-32.21h-83.46l-11.76,32.21h-43.69l72.26-186.81h49.85l71.98,186.81h-43.41ZM1474.01,783.91l-31.09,85.7h61.9l-30.81-85.7Z"/>
        <path class="cls-1" d="M1588.27,936.27v-186.81h87.38c40.61,0,62.74,27.45,62.74,60.22s-22.41,59.66-62.74,59.66h-47.61v66.94h-39.77ZM1670.33,783.63h-42.29v51.53h42.29c15.68,0,27.45-10.08,27.45-25.77s-11.76-25.77-27.45-25.77Z"/>
        <path class="cls-1" d="M1763.03,936.27v-186.81h132.2v34.17h-92.43v40.61h90.46v34.17h-90.46v43.41h92.43v34.45h-132.2Z"/>
        <path class="cls-1" d="M1926.32,936.27v-186.81h73.66c58.54,0,99.15,37.25,99.15,93.55s-40.61,93.27-99.15,93.27h-73.66ZM1966.09,901.26h33.89c36.97,0,58.54-26.61,58.54-58.26s-20.17-58.54-58.54-58.54h-33.89v116.79Z"/>
      </g>
    </g>
  </g>
</svg>